{"accessors" : [{"bufferView" : 0, "byteOffset" : 0, "componentType" : 5123, "count" : 3078, "type" : "SCALAR", "max" : [3077], "min" : [0]}, {"bufferView" : 1, "byteOffset" : 0, "componentType" : 5126, "count" : 3078, "type" : "VEC3", "max" : [3.015700101852417, 2.9848499298095703, 3.041680097579956], "min" : [-3.015700101852417, -2.8173398971557617, -3.003999948501587], "name" : "POSITION"}, {"bufferView" : 1, "byteOffset" : 12, "componentType" : 5126, "count" : 3078, "type" : "VEC3", "max" : [0.9997549653053284, 1.0000033378601074, 1.0000041723251343], "min" : [-0.9997549653053284, -1.0000033378601074, -1.0000044107437134], "name" : "NORMAL"}, {"bufferView" : 1, "byteOffset" : 24, "componentType" : 5126, "count" : 3078, "type" : "VEC2", "max" : [0.9841809868812561, 1.3155540227890015], "min" : [0.02066498063504696, -0.9559099674224854], "name" : "TEXCOORD_0"}], "asset" : {"generator" : "Aspose.3D 24.9.1", "version" : "2.0"}, "buffers" : [{"uri" : "data:application/octet-stream;base64,", "byteLength" : 104660}], "bufferViews" : [{"buffer" : 0, "byteOffset" : 0, "byteLength" : 6156, "target" : 34963}, {"buffer" : 0, "byteOffset" : 6160, "byteLength" : 98496, "byteStride" : 32, "target" : 34962}], "images" : [{"uri" : "data:image/png;base64,"}], "materials" : [{"name" : "Material__68", "pbrMetallicRoughness" : {"baseColorFactor" : [1, 1, 1, 1], "baseColorTexture" : {"index" : 0, "texCoord" : 0}, "metallicFactor" : 1, "roughnessFactor" : 1}, "emissiveFactor" : [0, 0, 0], "alphaMode" : "OPAQUE", "doubleSided" : false}], "meshes" : [{"primitives" : [{"attributes" : {"POSITION" : 1, "NORMAL" : 2, "TEXCOORD_0" : 3}, "indices" : 0, "material" : 0, "mode" : 4}], "name" : ""}], "nodes" : [{"matrix" : [-1, 0, 8.74228E-08, 0, 8.74228E-08, -4.37114E-08, 1, 0, 3.82137E-15, 1, 4.37114E-08, 0, 0, 0, 0, 1], "mesh" : 0, "name" : "PokeBall"}], "samplers" : [{"magFilter" : 9729, "minFilter" : 9987, "wrapS" : 10497, "wrapT" : 10497}], "scene" : 0, "scenes" : [{"nodes" : [0]}], "textures" : [{"sampler" : 0, "source" : 0, "name" : "ob0204_00_png"}]}