{"accessors" : [{"bufferView" : 0, "byteOffset" : 0, "componentType" : 5123, "count" : 14706, "type" : "SCALAR", "max" : [3133], "min" : [0]}, {"bufferView" : 1, "byteOffset" : 0, "componentType" : 5126, "count" : 3134, "type" : "VEC3", "max" : [35.54050064086914, 66.0947036743164, 99.82170104980469], "min" : [-35.54050064086914, -57.846900939941406, -33.96760177612305], "name" : "POSITION"}, {"bufferView" : 1, "byteOffset" : 12, "componentType" : 5126, "count" : 3134, "type" : "VEC3", "max" : [0.9999632835388184, 0.9999068975448608, 0.9999811053276062], "min" : [-0.9999632835388184, -0.9993650317192078, -1.0000044107437134], "name" : "NORMAL"}, {"bufferView" : 1, "byteOffset" : 24, "componentType" : 5126, "count" : 3134, "type" : "VEC2", "max" : [0.9950609803199768, 0.9942930340766907], "min" : [0.004938960075378418, 0.006219029426574707], "name" : "TEXCOORD_0"}, {"bufferView" : 0, "byteOffset" : 29412, "componentType" : 5123, "count" : 240, "type" : "SCALAR", "max" : [54], "min" : [0]}, {"bufferView" : 2, "byteOffset" : 0, "componentType" : 5126, "count" : 55, "type" : "VEC3", "max" : [15.938899993896484, -45.49869918823242, 80.43000030517578], "min" : [-15.938899993896484, -55.814701080322266, 65.4979019165039], "name" : "POSITION"}, {"bufferView" : 2, "byteOffset" : 12, "componentType" : 5126, "count" : 55, "type" : "VEC3", "max" : [0.8757220506668091, -0.4347655773162842, 0.4916973114013672], "min" : [-0.8757221698760986, -0.9934431910514832, 0.05993892624974251], "name" : "NORMAL"}, {"bufferView" : 2, "byteOffset" : 24, "componentType" : 5126, "count" : 55, "type" : "VEC2", "max" : [0.4904699921607971, -0.7760399580001831], "min" : [0.009528993628919125, -0.9704899787902832], "name" : "TEXCOORD_0"}], "asset" : {"generator" : "Aspose.3D 24.9.1", "version" : "2.0"}, "buffers" : [{"uri" : "data:application/octet-stream;base64,", "byteLength" : 131952}], "bufferViews" : [{"buffer" : 0, "byteOffset" : 0, "byteLength" : 29892, "target" : 34963}, {"buffer" : 0, "byteOffset" : 29896, "byteLength" : 100288, "byteStride" : 32, "target" : 34962}, {"buffer" : 0, "byteOffset" : 130188, "byteLength" : 1760, "byteStride" : 32, "target" : 34962}], "cameras" : [{"perspective" : {"aspectRatio" : 1.777778, "yfov" : 0.9902664817928695, "zfar" : 100, "znear" : 0.1}, "type" : "perspective", "name" : "Camera.003"}], "images" : [{"uri" : "data:image/png;base64,"}, {"uri" : "data:image/png;base64,"}], "materials" : [{"name" : "Material__72.005", "pbrMetallicRoughness" : {"baseColorFactor" : [1, 1, 1, 1], "baseColorTexture" : {"index" : 0, "texCoord" : 0}, "metallicFactor" : 1, "roughnessFactor" : 1}, "emissiveFactor" : [0, 0, 0], "alphaMode" : "OPAQUE", "doubleSided" : false}, {"name" : "Material__73.005", "pbrMetallicRoughness" : {"baseColorFactor" : [1, 1, 1, 1], "baseColorTexture" : {"index" : 1, "texCoord" : 0}, "metallicFactor" : 1, "roughnessFactor" : 1}, "emissiveFactor" : [0, 0, 0], "alphaMode" : "OPAQUE", "doubleSided" : false}], "meshes" : [{"primitives" : [{"attributes" : {"POSITION" : 1, "NORMAL" : 2, "TEXCOORD_0" : 3}, "indices" : 0, "material" : 0, "mode" : 4}, {"attributes" : {"POSITION" : 5, "NORMAL" : 6, "TEXCOORD_0" : 7}, "indices" : 4, "material" : 1, "mode" : 4}], "name" : ""}], "nodes" : [{"camera" : 0, "matrix" : [0.6859206, 8.19893E-09, 0.7276765, 0, -0.3240135, -0.8953961, 0.3054209, 0, 0.6515584, -0.4452715, -0.6141708, 0, 7.358891, -4.958309, -6.925791, 1], "name" : "Camera"}, {"matrix" : [-0.4870287, 0, 4.25774E-08, 0, 4.25774E-08, -2.12887E-08, 0.4870287, 0, 1.86112E-15, 0.4870287, 2.12887E-08, 0, 0, 0, 0, 1], "mesh" : 0, "name" : "Wartortle"}], "samplers" : [{"magFilter" : 9729, "minFilter" : 9987, "wrapS" : 10497, "wrapT" : 10497}, {"magFilter" : 9729, "minFilter" : 9987, "wrapS" : 10497, "wrapT" : 10497}], "scene" : 0, "scenes" : [{"nodes" : [0, 1]}], "textures" : [{"sampler" : 0, "source" : 0, "name" : "pm0008_00_Body1_png"}, {"sampler" : 1, "source" : 1, "name" : "pm0008_00_Eye1_Merged_png"}]}