{"accessors" : [{"bufferView" : 0, "byteOffset" : 0, "componentType" : 5123, "count" : 5478, "type" : "SCALAR", "max" : [1239], "min" : [0]}, {"bufferView" : 1, "byteOffset" : 0, "componentType" : 5126, "count" : 1240, "type" : "VEC3", "max" : [57.249900817871094, 49.731201171875, 130.05599975585938], "min" : [-57.249900817871094, -87.52059936523438, 0], "name" : "POSITION"}, {"bufferView" : 1, "byteOffset" : 12, "componentType" : 5126, "count" : 1240, "type" : "VEC3", "max" : [0.9974179863929749, 0.9989598989486694, 0.9995713829994202], "min" : [-0.9974179863929749, -0.9952927827835083, -1.0000044107437134], "name" : "NORMAL"}, {"bufferView" : 1, "byteOffset" : 24, "componentType" : 5126, "count" : 1240, "type" : "VEC2", "max" : [1, -0.007809996604919434], "min" : [0, -0.9921900033950806], "name" : "TEXCOORD_0"}, {"bufferView" : 0, "byteOffset" : 10956, "componentType" : 5123, "count" : 612, "type" : "SCALAR", "max" : [125], "min" : [0]}, {"bufferView" : 2, "byteOffset" : 0, "componentType" : 5126, "count" : 126, "type" : "VEC3", "max" : [17.643299102783203, -44.9552001953125, 137.63600158691406], "min" : [-17.643299102783203, -67.06639862060547, 123.36199951171875], "name" : "POSITION"}, {"bufferView" : 2, "byteOffset" : 12, "componentType" : 5126, "count" : 126, "type" : "VEC3", "max" : [0.889382541179657, -0.11241059750318527, 0.9843753576278687], "min" : [-0.889382541179657, -0.978477954864502, -0.28760239481925964], "name" : "NORMAL"}, {"bufferView" : 2, "byteOffset" : 24, "componentType" : 5126, "count" : 126, "type" : "VEC2", "max" : [0.49219000339508057, -1.7716100215911865], "min" : [0.007812975905835629, -1.9783899784088135], "name" : "TEXCOORD_0"}, {"bufferView" : 0, "byteOffset" : 12180, "componentType" : 5123, "count" : 10032, "type" : "SCALAR", "max" : [2199], "min" : [0]}, {"bufferView" : 3, "byteOffset" : 0, "componentType" : 5126, "count" : 2200, "type" : "VEC3", "max" : [55.15850067138672, 72.15450286865234, 137.85800170898438], "min" : [-55.15850067138672, -81.60279846191406, 0], "name" : "POSITION"}, {"bufferView" : 3, "byteOffset" : 12, "componentType" : 5126, "count" : 2200, "type" : "VEC3", "max" : [0.9992079734802246, 0.9990084171295166, 0.9997900128364563], "min" : [-0.9992079734802246, -0.9999126195907593, -1.0000044107437134], "name" : "NORMAL"}, {"bufferView" : 3, "byteOffset" : 24, "componentType" : 5126, "count" : 2200, "type" : "VEC2", "max" : [1, 0.9925940036773682], "min" : [0, 0.007804989814758301], "name" : "TEXCOORD_0"}, {"bufferView" : 0, "byteOffset" : 32244, "componentType" : 5123, "count" : 552, "type" : "SCALAR", "max" : [551], "min" : [0]}, {"bufferView" : 4, "byteOffset" : 0, "componentType" : 5126, "count" : 552, "type" : "VEC3", "max" : [51.631500244140625, 26.052400588989258, 114.53800201416016], "min" : [-51.631500244140625, -16.475099563598633, 77.55879974365234], "name" : "POSITION"}, {"bufferView" : 4, "byteOffset" : 12, "componentType" : 5126, "count" : 552, "type" : "VEC3", "max" : [0.9937865138053894, 0.9823527336120605, 0.9646758437156677], "min" : [-0.9937863945960999, -0.5321946144104004, -0.3636632263660431], "name" : "NORMAL"}, {"bufferView" : 4, "byteOffset" : 24, "componentType" : 5126, "count" : 552, "type" : "VEC2", "max" : [0.8652340173721313, -0.5078099966049194], "min" : [0.13476599752902985, -0.7604299783706665], "name" : "TEXCOORD_0"}, {"bufferView" : 0, "byteOffset" : 33348, "componentType" : 5123, "count" : 1920, "type" : "SCALAR", "max" : [1919], "min" : [0]}, {"bufferView" : 5, "byteOffset" : 0, "componentType" : 5126, "count" : 1920, "type" : "VEC3", "max" : [73.32360076904297, 26.11720085144043, 126.23400115966797], "min" : [-73.32360076904297, -55.94459915161133, 77.80180358886719], "name" : "POSITION"}, {"bufferView" : 5, "byteOffset" : 12, "componentType" : 5126, "count" : 1920, "type" : "VEC3", "max" : [0.9887792468070984, 0.9939450025558472, 0.9956601858139038], "min" : [-0.9887792468070984, -0.9229175448417664, -0.9855416417121887], "name" : "NORMAL"}, {"bufferView" : 5, "byteOffset" : 24, "componentType" : 5126, "count" : 1920, "type" : "VEC2", "max" : [0.9942299723625183, -0.14061999320983887], "min" : [0.005769968032836914, -0.9921900033950806], "name" : "TEXCOORD_0"}], "asset" : {"generator" : "Aspose.3D 24.9.1", "version" : "2.0"}, "buffers" : [{"uri" : "data:application/octet-stream;base64,", "byteLength" : 230428}], "bufferViews" : [{"buffer" : 0, "byteOffset" : 0, "byteLength" : 37188, "target" : 34963}, {"buffer" : 0, "byteOffset" : 37192, "byteLength" : 39680, "byteStride" : 32, "target" : 34962}, {"buffer" : 0, "byteOffset" : 76876, "byteLength" : 4032, "byteStride" : 32, "target" : 34962}, {"buffer" : 0, "byteOffset" : 80912, "byteLength" : 70400, "byteStride" : 32, "target" : 34962}, {"buffer" : 0, "byteOffset" : 151316, "byteLength" : 17664, "byteStride" : 32, "target" : 34962}, {"buffer" : 0, "byteOffset" : 168984, "byteLength" : 61440, "byteStride" : 32, "target" : 34962}], "images" : [{"uri" : "data:image/png;base64,"}, {"uri" : "data:image/png;base64,"}, {"uri" : "data:image/png;base64,"}], "materials" : [{"name" : "Material__86.003", "pbrMetallicRoughness" : {"baseColorFactor" : [1, 1, 1, 1], "baseColorTexture" : {"index" : 0, "texCoord" : 0}, "metallicFactor" : 1, "roughnessFactor" : 1}, "emissiveFactor" : [0, 0, 0], "alphaMode" : "OPAQUE", "doubleSided" : false}, {"name" : "Material__87.003", "pbrMetallicRoughness" : {"baseColorFactor" : [1, 1, 1, 1], "baseColorTexture" : {"index" : 1, "texCoord" : 0}, "metallicFactor" : 1, "roughnessFactor" : 1}, "emissiveFactor" : [0, 0, 0], "alphaMode" : "OPAQUE", "doubleSided" : false}, {"name" : "Material__85.003", "pbrMetallicRoughness" : {"baseColorFactor" : [1, 1, 1, 1], "baseColorTexture" : {"index" : 2, "texCoord" : 0}, "metallicFactor" : 1, "roughnessFactor" : 1}, "emissiveFactor" : [0, 0, 0], "alphaMode" : "OPAQUE", "doubleSided" : false}], "meshes" : [{"primitives" : [{"attributes" : {"POSITION" : 1, "NORMAL" : 2, "TEXCOORD_0" : 3}, "indices" : 0, "material" : 0, "mode" : 4}, {"attributes" : {"POSITION" : 5, "NORMAL" : 6, "TEXCOORD_0" : 7}, "indices" : 4, "material" : 1, "mode" : 4}, {"attributes" : {"POSITION" : 9, "NORMAL" : 10, "TEXCOORD_0" : 11}, "indices" : 8, "material" : 2, "mode" : 4}], "name" : ""}, {"primitives" : [{"attributes" : {"POSITION" : 13, "NORMAL" : 14, "TEXCOORD_0" : 15}, "indices" : 12, "material" : 0, "mode" : 4}], "name" : ""}, {"primitives" : [{"attributes" : {"POSITION" : 17, "NORMAL" : 18, "TEXCOORD_0" : 19}, "indices" : 16, "material" : 0, "mode" : 4}], "name" : ""}], "nodes" : [{"matrix" : [-0.41168, 0, 3.59902E-08, 0, 4.23379E-08, -2.1169E-08, 0.4842893, 0, 1.57318E-15, 0.41168, 1.79951E-08, 0, 0, 0, 0, 1], "mesh" : 0, "name" : "Blastoise"}, {"matrix" : [-0.41168, 0, 3.59902E-08, 0, 4.23379E-08, -2.1169E-08, 0.4842893, 0, 1.57318E-15, 0.41168, 1.79951E-08, 0, 0, 0, 0, 1], "mesh" : 1, "name" : "Blastoise_CannonsB"}, {"matrix" : [-0.41168, 0, 3.59902E-08, 0, 4.23379E-08, -2.1169E-08, 0.4842893, 0, 1.57318E-15, 0.41168, 1.79951E-08, 0, 0, 0, 0, 1], "mesh" : 2, "name" : "Blastoise_CannonsA"}], "samplers" : [{"magFilter" : 9729, "minFilter" : 9987, "wrapS" : 10497, "wrapT" : 10497}, {"magFilter" : 9729, "minFilter" : 9987, "wrapS" : 10497, "wrapT" : 10497}, {"magFilter" : 9729, "minFilter" : 9987, "wrapS" : 10497, "wrapT" : 10497}], "scene" : 0, "scenes" : [{"nodes" : [0, 1, 2]}], "textures" : [{"sampler" : 0, "source" : 0, "name" : "pm0009_00_BodyB1_png"}, {"sampler" : 1, "source" : 1, "name" : "pm0009_00_Eye1_Merged_png"}, {"sampler" : 2, "source" : 2, "name" : "pm0009_00_BodyA1_png"}]}