{"accessors" : [{"bufferView" : 0, "byteOffset" : 0, "componentType" : 5123, "count" : 10056, "type" : "SCALAR", "max" : [2159], "min" : [0]}, {"bufferView" : 1, "byteOffset" : 0, "componentType" : 5126, "count" : 2160, "type" : "VEC3", "max" : [36.76580047607422, 44.45330047607422, 68.09490203857422], "min" : [-36.76580047607422, -66.16600036621094, 0], "name" : "POSITION"}, {"bufferView" : 1, "byteOffset" : 12, "componentType" : 5126, "count" : 2160, "type" : "VEC3", "max" : [0.9991745948791504, 0.998603880405426, 0.9999698996543884], "min" : [-0.9991745948791504, -0.9999786019325256, -1.0000044107437134], "name" : "NORMAL"}, {"bufferView" : 1, "byteOffset" : 24, "componentType" : 5126, "count" : 2160, "type" : "VEC2", "max" : [1, 0.9948580265045166], "min" : [0, 0.004489004611968994], "name" : "TEXCOORD_0"}, {"bufferView" : 0, "byteOffset" : 20112, "componentType" : 5123, "count" : 576, "type" : "SCALAR", "max" : [119], "min" : [0]}, {"bufferView" : 2, "byteOffset" : 0, "componentType" : 5126, "count" : 120, "type" : "VEC3", "max" : [31.240299224853516, -41.8130989074707, 58.923301696777344], "min" : [-31.240299224853516, -62.441898345947266, 33.551490783691406], "name" : "POSITION"}, {"bufferView" : 2, "byteOffset" : 12, "componentType" : 5126, "count" : 120, "type" : "VEC3", "max" : [0.9748937487602234, -0.18207091093063354, 0.7724090218544006], "min" : [-0.9748938679695129, -0.9884448051452637, 0.008887567557394505], "name" : "NORMAL"}, {"bufferView" : 2, "byteOffset" : 24, "componentType" : 5126, "count" : 120, "type" : "VEC2", "max" : [0.49503999948501587, -0.7860300540924072], "min" : [0.004957973025739193, -0.9878300428390503], "name" : "TEXCOORD_0"}, {"bufferView" : 0, "byteOffset" : 21264, "componentType" : 5123, "count" : 4800, "type" : "SCALAR", "max" : [1118], "min" : [0]}, {"bufferView" : 3, "byteOffset" : 0, "componentType" : 5126, "count" : 1119, "type" : "VEC3", "max" : [82.73548889160156, 93.4574966430664, 79.76229095458984], "min" : [-82.7354965209961, -71.7409896850586, 51.03350067138672], "name" : "POSITION"}, {"bufferView" : 3, "byteOffset" : 12, "componentType" : 5126, "count" : 1119, "type" : "VEC3", "max" : [0.9989637732505798, 0.995164692401886, 0.9995884895324707], "min" : [-0.9999282956123352, -0.9999977946281433, -0.999851405620575], "name" : "NORMAL"}, {"bufferView" : 3, "byteOffset" : 24, "componentType" : 5126, "count" : 1119, "type" : "VEC2", "max" : [0.9932339787483215, 0.9940170049667358], "min" : [0.005206942092627287, 0.0062490105628967285], "name" : "TEXCOORD_0"}, {"bufferView" : 0, "byteOffset" : 30864, "componentType" : 5123, "count" : 3996, "type" : "SCALAR", "max" : [883], "min" : [0]}, {"bufferView" : 4, "byteOffset" : 0, "componentType" : 5126, "count" : 884, "type" : "VEC3", "max" : [28.421199798583984, 41.10029983520508, 126.95500183105469], "min" : [-28.350500106811523, -15.638899803161621, 68.9801025390625], "name" : "POSITION"}, {"bufferView" : 4, "byteOffset" : 12, "componentType" : 5126, "count" : 884, "type" : "VEC3", "max" : [0.9989078044891357, 0.9982175827026367, 0.9985461235046387], "min" : [-0.9989063143730164, -0.9990494847297668, -0.9773332476615906], "name" : "NORMAL"}, {"bufferView" : 4, "byteOffset" : 24, "componentType" : 5126, "count" : 884, "type" : "VEC2", "max" : [0.9903849959373474, -0.004430055618286133], "min" : [0.008880971930921078, -0.9958300590515137], "name" : "TEXCOORD_0"}], "asset" : {"generator" : "Aspose.3D 24.9.1", "version" : "2.0"}, "buffers" : [{"uri" : "data:application/octet-stream;base64,", "byteLength" : 175932}], "bufferViews" : [{"buffer" : 0, "byteOffset" : 0, "byteLength" : 38856, "target" : 34963}, {"buffer" : 0, "byteOffset" : 38860, "byteLength" : 69120, "byteStride" : 32, "target" : 34962}, {"buffer" : 0, "byteOffset" : 107984, "byteLength" : 3840, "byteStride" : 32, "target" : 34962}, {"buffer" : 0, "byteOffset" : 111828, "byteLength" : 35808, "byteStride" : 32, "target" : 34962}, {"buffer" : 0, "byteOffset" : 147640, "byteLength" : 28288, "byteStride" : 32, "target" : 34962}], "images" : [{"uri" : "data:image/png;base64,"}, {"uri" : "data:image/png;base64,"}, {"uri" : "data:image/png;base64,"}, {"uri" : "data:image/png;base64,"}], "materials" : [{"name" : "Material__46.002", "pbrMetallicRoughness" : {"baseColorFactor" : [1, 1, 1, 1], "baseColorTexture" : {"index" : 0, "texCoord" : 0}, "metallicFactor" : 1, "roughnessFactor" : 1}, "emissiveFactor" : [0, 0, 0], "alphaMode" : "OPAQUE", "doubleSided" : false}, {"name" : "Material__47.002", "pbrMetallicRoughness" : {"baseColorFactor" : [1, 1, 1, 1], "baseColorTexture" : {"index" : 1, "texCoord" : 0}, "metallicFactor" : 1, "roughnessFactor" : 1}, "emissiveFactor" : [0, 0, 0], "alphaMode" : "OPAQUE", "doubleSided" : false}, {"name" : "Material__48.002", "pbrMetallicRoughness" : {"baseColorFactor" : [1, 1, 1, 1], "baseColorTexture" : {"index" : 2, "texCoord" : 0}, "metallicFactor" : 1, "roughnessFactor" : 1}, "emissiveFactor" : [0, 0, 0], "alphaMode" : "OPAQUE", "doubleSided" : false}, {"name" : "Material__49.002", "pbrMetallicRoughness" : {"baseColorFactor" : [1, 1, 1, 1], "baseColorTexture" : {"index" : 3, "texCoord" : 0}, "metallicFactor" : 1, "roughnessFactor" : 1}, "emissiveFactor" : [0, 0, 0], "alphaMode" : "OPAQUE", "doubleSided" : false}], "meshes" : [{"primitives" : [{"attributes" : {"POSITION" : 1, "NORMAL" : 2, "TEXCOORD_0" : 3}, "indices" : 0, "material" : 0, "mode" : 4}, {"attributes" : {"POSITION" : 5, "NORMAL" : 6, "TEXCOORD_0" : 7}, "indices" : 4, "material" : 1, "mode" : 4}, {"attributes" : {"POSITION" : 9, "NORMAL" : 10, "TEXCOORD_0" : 11}, "indices" : 8, "material" : 2, "mode" : 4}, {"attributes" : {"POSITION" : 13, "NORMAL" : 14, "TEXCOORD_0" : 15}, "indices" : 12, "material" : 3, "mode" : 4}], "name" : ""}], "nodes" : [{"matrix" : [-0.5051554, 0, 4.41621E-08, 0, 4.41621E-08, -2.2081E-08, 0.5051554, 0, 1.93039E-15, 0.5051554, 2.2081E-08, 0, 0, 0, 0, 1], "mesh" : 0, "name" : "Ivysaur"}], "samplers" : [{"magFilter" : 9729, "minFilter" : 9987, "wrapS" : 10497, "wrapT" : 10497}, {"magFilter" : 9729, "minFilter" : 9987, "wrapS" : 10497, "wrapT" : 10497}, {"magFilter" : 9729, "minFilter" : 9987, "wrapS" : 10497, "wrapT" : 10497}, {"magFilter" : 9729, "minFilter" : 9987, "wrapS" : 10497, "wrapT" : 10497}], "scene" : 0, "scenes" : [{"nodes" : [0]}], "textures" : [{"sampler" : 0, "source" : 0, "name" : "pm0002_00_BodyA1_png"}, {"sampler" : 1, "source" : 1, "name" : "pm0002_00_Eye1_png"}, {"sampler" : 2, "source" : 2, "name" : "pm0002_00_BodyB1_png"}, {"sampler" : 3, "source" : 3, "name" : "pm0002_00_BodyC1_png"}]}