{"accessors" : [{"bufferView" : 0, "byteOffset" : 0, "componentType" : 5123, "count" : 5664, "type" : "SCALAR", "max" : [1271], "min" : [0]}, {"bufferView" : 1, "byteOffset" : 0, "componentType" : 5126, "count" : 1272, "type" : "VEC3", "max" : [140.09800720214844, 125.6500015258789, 191.51699829101562], "min" : [-140.09800720214844, -154.5500030517578, 95.73030090332031], "name" : "POSITION"}, {"bufferView" : 1, "byteOffset" : 12, "componentType" : 5126, "count" : 1272, "type" : "VEC3", "max" : [1.0000038146972656, 1.0000038146972656, 1.0000044107437134], "min" : [-1.0000038146972656, -1.0000038146972656, -0.9998875856399536], "name" : "NORMAL"}, {"bufferView" : 1, "byteOffset" : 24, "componentType" : 5126, "count" : 1272, "type" : "VEC2", "max" : [0.9953299760818481, 0.9958299994468689], "min" : [0.0056219687685370445, 0.005349993705749512], "name" : "TEXCOORD_0"}, {"bufferView" : 0, "byteOffset" : 11328, "componentType" : 5123, "count" : 336, "type" : "SCALAR", "max" : [69], "min" : [0]}, {"bufferView" : 2, "byteOffset" : 0, "componentType" : 5126, "count" : 70, "type" : "VEC3", "max" : [45.54890060424805, -104.29299926757812, 91.03369903564453], "min" : [-45.54890060424805, -127.96399688720703, 59.08570098876953], "name" : "POSITION"}, {"bufferView" : 2, "byteOffset" : 12, "componentType" : 5126, "count" : 70, "type" : "VEC3", "max" : [0.8333224654197693, -0.42627522349357605, 0.7215768694877625], "min" : [-0.8333225250244141, -0.9171267151832581, -0.05029425770044327], "name" : "NORMAL"}, {"bufferView" : 2, "byteOffset" : 24, "componentType" : 5126, "count" : 70, "type" : "VEC2", "max" : [0.48921999335289, -1.7709898948669434], "min" : [0.01078099012374878, -1.9868299961090088], "name" : "TEXCOORD_0"}, {"bufferView" : 0, "byteOffset" : 12000, "componentType" : 5123, "count" : 9990, "type" : "SCALAR", "max" : [2325], "min" : [0]}, {"bufferView" : 3, "byteOffset" : 0, "componentType" : 5126, "count" : 2326, "type" : "VEC3", "max" : [107.11699676513672, 93.02690124511719, 109.05500030517578], "min" : [-107.11699676513672, -139.18600463867188, -0.009799957275390625], "name" : "POSITION"}, {"bufferView" : 3, "byteOffset" : 12, "componentType" : 5126, "count" : 2326, "type" : "VEC3", "max" : [0.9997987151145935, 0.9996579885482788, 0.999779999256134], "min" : [-0.999798595905304, -0.9999445676803589, -1.0000044107437134], "name" : "NORMAL"}, {"bufferView" : 3, "byteOffset" : 24, "componentType" : 5126, "count" : 2326, "type" : "VEC2", "max" : [1, 0.9921870231628418], "min" : [0, 0.010878026485443115], "name" : "TEXCOORD_0"}, {"bufferView" : 0, "byteOffset" : 31980, "componentType" : 5123, "count" : 3168, "type" : "SCALAR", "max" : [695], "min" : [0]}, {"bufferView" : 4, "byteOffset" : 0, "componentType" : 5126, "count" : 696, "type" : "VEC3", "max" : [96.9745101928711, 78.67040252685547, 166.26199340820312], "min" : [-96.9745101928711, -107.56999969482422, 135.76400756835938], "name" : "POSITION"}, {"bufferView" : 4, "byteOffset" : 12, "componentType" : 5126, "count" : 696, "type" : "VEC3", "max" : [0.9577362537384033, 0.987739622592926, 0.9993152022361755], "min" : [-0.9577364325523376, -0.987739622592926, -0.9999722838401794], "name" : "NORMAL"}, {"bufferView" : 4, "byteOffset" : 24, "componentType" : 5126, "count" : 696, "type" : "VEC2", "max" : [0.9905369877815247, -0.0040700435638427734], "min" : [0.009045957587659359, -0.9959299564361572], "name" : "TEXCOORD_0"}], "asset" : {"generator" : "Aspose.3D 24.9.1", "version" : "2.0"}, "buffers" : [{"uri" : "data:application/octet-stream;base64,", "byteLength" : 177984}], "bufferViews" : [{"buffer" : 0, "byteOffset" : 0, "byteLength" : 38316, "target" : 34963}, {"buffer" : 0, "byteOffset" : 38320, "byteLength" : 40704, "byteStride" : 32, "target" : 34962}, {"buffer" : 0, "byteOffset" : 79028, "byteLength" : 2240, "byteStride" : 32, "target" : 34962}, {"buffer" : 0, "byteOffset" : 81272, "byteLength" : 74432, "byteStride" : 32, "target" : 34962}, {"buffer" : 0, "byteOffset" : 155708, "byteLength" : 22272, "byteStride" : 32, "target" : 34962}], "images" : [{"uri" : "data:image/png;base64,"}, {"uri" : "data:image/png;base64,"}, {"uri" : "data:image/png;base64,"}, {"uri" : "data:image/png;base64,"}], "materials" : [{"name" : "Material__63", "pbrMetallicRoughness" : {"baseColorFactor" : [1, 1, 1, 1], "baseColorTexture" : {"index" : 0, "texCoord" : 0}, "metallicFactor" : 1, "roughnessFactor" : 1}, "emissiveFactor" : [0, 0, 0], "alphaMode" : "OPAQUE", "doubleSided" : false}, {"name" : "Material__61.002", "pbrMetallicRoughness" : {"baseColorFactor" : [1, 1, 1, 1], "baseColorTexture" : {"index" : 1, "texCoord" : 0}, "metallicFactor" : 1, "roughnessFactor" : 1}, "emissiveFactor" : [0, 0, 0], "alphaMode" : "OPAQUE", "doubleSided" : false}, {"name" : "Material__62", "pbrMetallicRoughness" : {"baseColorFactor" : [1, 1, 1, 1], "baseColorTexture" : {"index" : 2, "texCoord" : 0}, "metallicFactor" : 1, "roughnessFactor" : 1}, "emissiveFactor" : [0, 0, 0], "alphaMode" : "OPAQUE", "doubleSided" : false}, {"name" : "Material__60.002", "pbrMetallicRoughness" : {"baseColorFactor" : [1, 1, 1, 1], "baseColorTexture" : {"index" : 3, "texCoord" : 0}, "metallicFactor" : 1, "roughnessFactor" : 1}, "emissiveFactor" : [0, 0, 0], "alphaMode" : "OPAQUE", "doubleSided" : false}], "meshes" : [{"primitives" : [{"attributes" : {"POSITION" : 1, "NORMAL" : 2, "TEXCOORD_0" : 3}, "indices" : 0, "material" : 0, "mode" : 4}, {"attributes" : {"POSITION" : 5, "NORMAL" : 6, "TEXCOORD_0" : 7}, "indices" : 4, "material" : 1, "mode" : 4}, {"attributes" : {"POSITION" : 9, "NORMAL" : 10, "TEXCOORD_0" : 11}, "indices" : 8, "material" : 2, "mode" : 4}, {"attributes" : {"POSITION" : 13, "NORMAL" : 14, "TEXCOORD_0" : 15}, "indices" : 12, "material" : 3, "mode" : 4}], "name" : ""}], "nodes" : [{"matrix" : [-0.3660883, 0, 3.20045E-08, 0, 3.20045E-08, -1.60022E-08, 0.3660883, 0, 1.39896E-15, 0.3660883, 1.60022E-08, 0, 0, 0, 0, 1], "mesh" : 0, "name" : "VenusaurF"}], "samplers" : [{"magFilter" : 9729, "minFilter" : 9987, "wrapS" : 10497, "wrapT" : 10497}, {"magFilter" : 9729, "minFilter" : 9987, "wrapS" : 10497, "wrapT" : 10497}, {"magFilter" : 9729, "minFilter" : 9987, "wrapS" : 10497, "wrapT" : 10497}, {"magFilter" : 9729, "minFilter" : 9987, "wrapS" : 10497, "wrapT" : 10497}], "scene" : 0, "scenes" : [{"nodes" : [0]}], "textures" : [{"sampler" : 0, "source" : 0, "name" : "pm0003_00_BodyB1_png"}, {"sampler" : 1, "source" : 1, "name" : "pm0003_00_Eye1_png"}, {"sampler" : 2, "source" : 2, "name" : "pm0003_00_BodyA1_png"}, {"sampler" : 3, "source" : 3, "name" : "pm0003_00_BodyC1_png"}]}